<svg width="80" height="80" viewBox="0 0 80 80" fill="none" xmlns="http://www.w3.org/2000/svg">
<g opacity="0.7" clip-path="url(#clip0_4_906)">
<path d="M0.0136719 39.3164C0.524633 38.0735 1.4637 37.5763 2.78944 37.6178C4.39137 37.673 6.00711 37.6039 7.60905 37.6454C11.0477 37.7144 13.9615 40.3935 14.3758 43.8321C14.4587 44.495 14.4863 45.1579 14.4863 45.8208C14.4863 54.6176 14.4863 63.4006 14.4863 72.1974C14.4863 73.4679 14.3482 74.7246 13.7958 75.8847C12.8291 77.9009 11.2686 79.2266 9.1005 79.8204C8.92097 79.8757 8.75526 79.9309 8.57573 79.9862C5.91044 79.9862 3.24516 79.9723 0.579872 80C0.11034 80 0.0136719 79.9033 0.0136719 79.4338C0.0136719 66.0659 0.0136719 52.6842 0.0136719 39.3164Z" fill="url(#paint0_linear_4_906)"/>
<path d="M37.5486 75.3185C31.7347 75.3185 25.9208 75.3185 20.1069 75.3185C19.0297 75.3185 19.0159 75.3185 19.0159 74.2689C19.0159 64.5745 19.0159 54.88 19.0021 45.1855C19.0021 44.5641 19.1954 44.1912 19.7478 43.8598C23.6974 41.4845 27.9094 40.7664 32.3976 41.8298C35.0214 42.465 37.4105 43.6388 39.3853 45.517C40.4763 46.5527 41.6639 47.0499 43.2106 47.0222C46.884 46.9394 50.5574 46.9808 54.2308 47.0084C56.468 47.0222 58.1804 48.3618 58.7742 50.5299C59.3128 52.4771 58.4566 54.6314 56.7028 55.7362C55.9018 56.2472 55.0318 56.4405 54.0789 56.4405C48.0578 56.4267 42.0368 56.4405 36.0295 56.4405C35.3805 56.4405 34.759 56.4957 34.1928 56.8962C33.3919 57.4624 33.1019 58.2496 33.2676 59.1748C33.4195 60.0725 34.0271 60.6249 34.8557 60.9149C35.2562 61.053 35.6567 61.0668 36.0848 61.0668C42.3958 61.0668 48.7207 61.0806 55.0318 61.053C57.117 61.053 58.7466 60.183 60.0309 58.4982C62.1852 55.6672 64.4638 52.9328 66.701 50.1709C68.3582 48.1132 70.0292 46.0694 71.6725 44.0117C72.8464 42.5479 74.904 41.9402 76.7683 42.5479C78.5912 43.1417 79.8893 44.8265 79.9722 46.7046C80.0274 47.8923 79.7236 48.9694 79.047 49.9499C75.8983 54.521 72.7497 59.1058 69.6149 63.6906C68.3582 65.5273 67.1291 67.3779 65.831 69.2007C63.0829 73.0813 59.3266 75.2494 54.5484 75.3185C48.8864 75.3737 43.2106 75.3185 37.5486 75.3185Z" fill="url(#paint1_linear_4_906)"/>
<path d="M70.4711 32.9915C69.0349 33.0882 67.9163 32.3701 66.8944 31.4172C62.9172 27.7024 58.9261 24.0013 54.9351 20.3003C51.8832 17.4693 48.8312 14.6521 45.7931 11.8349C44.9092 11.0202 44.8816 10.9787 43.984 11.7659C42.5063 13.0778 41.0701 14.4312 39.6201 15.7707C36.3196 18.7951 33.0328 21.8194 29.7323 24.8575C27.9508 26.5009 26.1832 28.1857 24.4017 29.8429C23.5731 30.6024 22.7584 31.3758 21.8883 32.0939C20.245 33.4334 17.483 33.2953 15.8949 31.8453C14.1687 30.2572 13.8234 27.6885 15.0249 25.8242C15.7706 24.6504 16.903 23.877 17.8697 22.9518C19.7755 21.1289 21.7641 19.3889 23.7112 17.6074C27.1361 14.4864 30.5747 11.3654 33.9995 8.24439C36.4162 6.03482 38.902 3.8805 41.222 1.56046C43.3211 -0.538626 46.525 -0.276241 48.265 1.43617C50.9441 4.07384 53.7889 6.54579 56.5509 9.10059C60.4728 12.7049 64.3948 16.3093 68.3168 19.8998C70.2502 21.6675 72.2526 23.3661 74.0755 25.2442C76.3403 27.5643 75.3598 31.6381 72.3078 32.7429C71.7416 32.9363 71.134 33.0329 70.4711 32.9915Z" fill="url(#paint2_linear_4_906)"/>
<path d="M44.8264 33.0053C43.404 33.0053 41.9816 32.9915 40.5592 33.0053C38.8744 33.0191 37.8663 34.0134 37.8248 35.712C37.811 36.582 37.7972 37.4521 37.8248 38.3359C37.8386 38.9159 37.6729 39.0126 37.1481 38.764C34.2205 37.3278 31.0857 36.8582 27.8542 36.8721C26.7494 36.8721 25.6722 37.1068 24.5813 37.3002C24.3051 37.3554 23.9598 37.5625 23.7665 37.2035C23.5732 36.8444 23.8079 36.5544 24.0703 36.3059C25.6446 34.8696 27.2189 33.4196 28.7932 31.9834C30.6714 30.2572 32.5219 28.5309 34.4 26.8047C37.7143 23.7528 41.0287 20.7146 44.3292 17.6627C44.6883 17.3312 44.9645 17.3174 45.3235 17.6488C46.6493 18.8779 48.0026 20.0932 49.3284 21.3222C53.6094 25.2718 57.8904 29.2352 62.1576 33.1987C63.221 34.1791 64.2705 35.1735 65.3477 36.1401C65.762 36.513 65.9553 36.9411 65.9415 37.5211C65.9001 39.4269 65.9139 41.3326 65.9277 43.2384C65.9277 43.6803 65.8172 44.0393 65.541 44.3708C64.7262 45.3651 63.9115 46.3594 63.1243 47.3675C62.8205 47.7542 62.6134 47.7403 62.3648 47.2984C60.4176 43.9012 57.3933 42.4236 53.568 42.3822C51.5517 42.3545 51.8279 42.6583 51.8141 40.6283C51.8003 38.9988 51.8141 37.3692 51.8141 35.7396C51.8003 33.9444 50.8751 33.0191 49.0936 33.0053C47.6712 32.9915 46.2488 33.0053 44.8264 33.0053Z" fill="url(#paint3_linear_4_906)"/>
<path d="M70.623 8.70011C70.623 10.813 70.623 12.9259 70.623 15.0388C70.623 15.2183 70.7059 15.4531 70.5126 15.5359C70.3054 15.6326 70.1949 15.3978 70.0706 15.2874C67.6677 13.0778 65.2786 10.8682 62.8757 8.65868C60.9148 6.8496 58.9538 5.05433 56.9928 3.25906C56.4266 2.73429 56.3575 1.79522 56.9099 1.00807C57.3518 0.359009 57.9871 -4.50667e-05 58.7742 -4.50667e-05C61.9643 -0.0138548 65.1544 -0.0276646 68.3582 -4.50667e-05C69.7254 0.0137647 70.623 0.952829 70.6368 2.33381C70.6368 4.47432 70.623 6.58721 70.623 8.70011Z" fill="url(#paint4_linear_4_906)"/>
<path d="M44.8266 37.6454C45.4204 37.6454 46.0142 37.6592 46.6218 37.6454C47.0361 37.6316 47.2018 37.8249 47.2018 38.2254C47.188 39.413 47.188 40.6145 47.2018 41.8021C47.2018 42.2164 47.0085 42.3821 46.608 42.3683C45.4342 42.3545 44.2604 42.3683 43.1003 42.3683C42.6722 42.3683 42.4651 42.1612 42.4651 41.7331C42.4651 40.5593 42.4651 39.3854 42.4651 38.2254C42.4651 37.8249 42.6308 37.6316 43.0451 37.6454C43.6251 37.6454 44.2327 37.6454 44.8266 37.6454Z" fill="url(#paint5_linear_4_906)"/>
</g>
<defs>
<linearGradient id="paint0_linear_4_906" x1="0.0136719" y1="39.992" x2="79.9786" y2="39.992" gradientUnits="userSpaceOnUse">
<stop stop-color="#FCEABB"/>
<stop offset="1" stop-color="#F8B500"/>
</linearGradient>
<linearGradient id="paint1_linear_4_906" x1="0.0136719" y1="39.992" x2="79.9786" y2="39.992" gradientUnits="userSpaceOnUse">
<stop stop-color="#FCEABB"/>
<stop offset="1" stop-color="#F8B500"/>
</linearGradient>
<linearGradient id="paint2_linear_4_906" x1="0.0136719" y1="39.992" x2="79.9786" y2="39.992" gradientUnits="userSpaceOnUse">
<stop stop-color="#FCEABB"/>
<stop offset="1" stop-color="#F8B500"/>
</linearGradient>
<linearGradient id="paint3_linear_4_906" x1="0.0136719" y1="39.992" x2="79.9786" y2="39.992" gradientUnits="userSpaceOnUse">
<stop stop-color="#FCEABB"/>
<stop offset="1" stop-color="#F8B500"/>
</linearGradient>
<linearGradient id="paint4_linear_4_906" x1="0.0136719" y1="39.992" x2="79.9786" y2="39.992" gradientUnits="userSpaceOnUse">
<stop stop-color="#FCEABB"/>
<stop offset="1" stop-color="#F8B500"/>
</linearGradient>
<linearGradient id="paint5_linear_4_906" x1="42.4651" y1="40.0069" x2="47.2018" y2="40.0069" gradientUnits="userSpaceOnUse">
<stop stop-color="#FCEABB"/>
<stop offset="1" stop-color="#F8B500"/>
</linearGradient>
<clipPath id="clip0_4_906">
<rect width="80" height="80" fill="white"/>
</clipPath>
</defs>
</svg>
